# MagicaVoxel @ Ephtracy

# group
o 

# material
mtllib Boom.mtl
usemtl palette

# normals
vn -1 0 0
vn 1 0 0
vn 0 0 1
vn 0 0 -1
vn 0 -1 0
vn 0 1 0

# texcoords
vt 0.841797 0.5
vt 0.966797 0.5
vt 0.994141 0.5

# verts
v 0 2 -0.3
v 0 2 -0.5
v 0 2.5 -0.3
v 0 2.5 -0.5
v 0.1 2.5 -0.3
v 0.1 2.5 -0.5
v 0.1 2.6 -0.3
v 0.1 2.6 -0.5
v 0.1 5.5 -0.1
v 0.1 5.5 -0.7
v 0.1 5.6 -0.1
v 0.1 5.6 -0.7
v 0.2 2.1 -0.2
v 0.2 2.1 -0.3
v 0.2 2.1 -0.5
v 0.2 2.1 -0.6
v 0.2 2.6 -0.3
v 0.2 2.6 -0.5
v 0.2 5.5 -0.2
v 0.2 5.5 -0.6
v 0.2 5.6 -0.2
v 0.2 5.6 -0.6
v 0.2 5.7 -0.2
v 0.2 5.7 -0.6
v 0.3 2 0
v 0.3 2 -0.3
v 0.3 2 -0.5
v 0.3 2 -0.8
v 0.3 2.1 -0.2
v 0.3 2.1 -0.3
v 0.3 2.1 -0.5
v 0.3 2.1 -0.6
v 0.3 2.5 0
v 0.3 2.5 -0.1
v 0.3 2.5 -0.7
v 0.3 2.5 -0.8
v 0.3 2.6 -0.1
v 0.3 2.6 -0.2
v 0.3 2.6 -0.6
v 0.3 2.6 -0.7
v 0.3 5.7 -0.3
v 0.3 5.7 -0.5
v 0.3 5.8 -0.3
v 0.3 5.8 -0.5
v 0.5 2 -0.3
v 0.5 2 -0.5
v 0.5 2.2 -0.3
v 0.5 2.2 -0.5
v 0.3 2 -0.3
v 0.3 2 -0.5
v 0.3 2.2 -0.3
v 0.3 2.2 -0.5
v 0.5 2 0
v 0.5 2 -0.3
v 0.5 2 -0.5
v 0.5 2 -0.8
v 0.5 2.1 -0.2
v 0.5 2.1 -0.3
v 0.5 2.1 -0.5
v 0.5 2.1 -0.6
v 0.5 2.5 0
v 0.5 2.5 -0.1
v 0.5 2.5 -0.7
v 0.5 2.5 -0.8
v 0.5 2.6 -0.1
v 0.5 2.6 -0.2
v 0.5 2.6 -0.6
v 0.5 2.6 -0.7
v 0.5 5.7 -0.3
v 0.5 5.7 -0.5
v 0.5 5.8 -0.3
v 0.5 5.8 -0.5
v 0.6 2.1 -0.2
v 0.6 2.1 -0.3
v 0.6 2.1 -0.5
v 0.6 2.1 -0.6
v 0.6 2.6 -0.3
v 0.6 2.6 -0.5
v 0.6 5.5 -0.2
v 0.6 5.5 -0.6
v 0.6 5.6 -0.2
v 0.6 5.6 -0.6
v 0.6 5.7 -0.2
v 0.6 5.7 -0.6
v 0.7 2.5 -0.3
v 0.7 2.5 -0.5
v 0.7 2.6 -0.3
v 0.7 2.6 -0.5
v 0.7 5.5 -0.1
v 0.7 5.5 -0.7
v 0.7 5.6 -0.1
v 0.7 5.6 -0.7
v 0.8 2 -0.3
v 0.8 2 -0.5
v 0.8 2.5 -0.3
v 0.8 2.5 -0.5
v 0.3 2 0
v 0.3 2.5 0
v 0.5 2 0
v 0.5 2.5 0
v 0.1 5.5 -0.1
v 0.1 5.6 -0.1
v 0.3 2.5 -0.1
v 0.3 2.6 -0.1
v 0.5 2.5 -0.1
v 0.5 2.6 -0.1
v 0.7 5.5 -0.1
v 0.7 5.6 -0.1
v 0.2 2.1 -0.2
v 0.2 5.5 -0.2
v 0.2 5.6 -0.2
v 0.2 5.7 -0.2
v 0.3 2.1 -0.2
v 0.3 2.6 -0.2
v 0.5 2.1 -0.2
v 0.5 2.6 -0.2
v 0.6 2.1 -0.2
v 0.6 5.5 -0.2
v 0.6 5.6 -0.2
v 0.6 5.7 -0.2
v 0 2 -0.3
v 0 2.5 -0.3
v 0.1 2.5 -0.3
v 0.1 2.6 -0.3
v 0.2 2.1 -0.3
v 0.2 2.6 -0.3
v 0.3 2 -0.3
v 0.3 2.1 -0.3
v 0.3 5.7 -0.3
v 0.3 5.8 -0.3
v 0.5 2 -0.3
v 0.5 2.1 -0.3
v 0.5 5.7 -0.3
v 0.5 5.8 -0.3
v 0.6 2.1 -0.3
v 0.6 2.6 -0.3
v 0.7 2.5 -0.3
v 0.7 2.6 -0.3
v 0.8 2 -0.3
v 0.8 2.5 -0.3
v 0.3 2 -0.5
v 0.3 2.2 -0.5
v 0.5 2 -0.5
v 0.5 2.2 -0.5
v 0.3 2 -0.3
v 0.3 2.2 -0.3
v 0.5 2 -0.3
v 0.5 2.2 -0.3
v 0 2 -0.5
v 0 2.5 -0.5
v 0.1 2.5 -0.5
v 0.1 2.6 -0.5
v 0.2 2.1 -0.5
v 0.2 2.6 -0.5
v 0.3 2 -0.5
v 0.3 2.1 -0.5
v 0.3 5.7 -0.5
v 0.3 5.8 -0.5
v 0.5 2 -0.5
v 0.5 2.1 -0.5
v 0.5 5.7 -0.5
v 0.5 5.8 -0.5
v 0.6 2.1 -0.5
v 0.6 2.6 -0.5
v 0.7 2.5 -0.5
v 0.7 2.6 -0.5
v 0.8 2 -0.5
v 0.8 2.5 -0.5
v 0.2 2.1 -0.6
v 0.2 5.5 -0.6
v 0.2 5.6 -0.6
v 0.2 5.7 -0.6
v 0.3 2.1 -0.6
v 0.3 2.6 -0.6
v 0.5 2.1 -0.6
v 0.5 2.6 -0.6
v 0.6 2.1 -0.6
v 0.6 5.5 -0.6
v 0.6 5.6 -0.6
v 0.6 5.7 -0.6
v 0.1 5.5 -0.7
v 0.1 5.6 -0.7
v 0.3 2.5 -0.7
v 0.3 2.6 -0.7
v 0.5 2.5 -0.7
v 0.5 2.6 -0.7
v 0.7 5.5 -0.7
v 0.7 5.6 -0.7
v 0.3 2 -0.8
v 0.3 2.5 -0.8
v 0.5 2 -0.8
v 0.5 2.5 -0.8
v 0.3 2 0
v 0.5 2 0
v 0 2 -0.3
v 0.3 2 -0.3
v 0.5 2 -0.3
v 0.8 2 -0.3
v 0 2 -0.5
v 0.3 2 -0.5
v 0.5 2 -0.5
v 0.8 2 -0.5
v 0.3 2 -0.8
v 0.5 2 -0.8
v 0.2 2.1 -0.2
v 0.3 2.1 -0.2
v 0.5 2.1 -0.2
v 0.6 2.1 -0.2
v 0.2 2.1 -0.3
v 0.3 2.1 -0.3
v 0.5 2.1 -0.3
v 0.6 2.1 -0.3
v 0.2 2.1 -0.5
v 0.3 2.1 -0.5
v 0.5 2.1 -0.5
v 0.6 2.1 -0.5
v 0.2 2.1 -0.6
v 0.3 2.1 -0.6
v 0.5 2.1 -0.6
v 0.6 2.1 -0.6
v 0.3 2.2 -0.3
v 0.5 2.2 -0.3
v 0.3 2.2 -0.5
v 0.5 2.2 -0.5
v 0.1 5.5 -0.1
v 0.7 5.5 -0.1
v 0.2 5.5 -0.2
v 0.6 5.5 -0.2
v 0.2 5.5 -0.6
v 0.6 5.5 -0.6
v 0.1 5.5 -0.7
v 0.7 5.5 -0.7
v 0.3 2.5 0
v 0.5 2.5 0
v 0.3 2.5 -0.1
v 0.5 2.5 -0.1
v 0 2.5 -0.3
v 0.1 2.5 -0.3
v 0.7 2.5 -0.3
v 0.8 2.5 -0.3
v 0 2.5 -0.5
v 0.1 2.5 -0.5
v 0.7 2.5 -0.5
v 0.8 2.5 -0.5
v 0.3 2.5 -0.7
v 0.5 2.5 -0.7
v 0.3 2.5 -0.8
v 0.5 2.5 -0.8
v 0.3 2.6 -0.1
v 0.5 2.6 -0.1
v 0.3 2.6 -0.2
v 0.5 2.6 -0.2
v 0.1 2.6 -0.3
v 0.2 2.6 -0.3
v 0.6 2.6 -0.3
v 0.7 2.6 -0.3
v 0.1 2.6 -0.5
v 0.2 2.6 -0.5
v 0.6 2.6 -0.5
v 0.7 2.6 -0.5
v 0.3 2.6 -0.6
v 0.5 2.6 -0.6
v 0.3 2.6 -0.7
v 0.5 2.6 -0.7
v 0.1 5.6 -0.1
v 0.7 5.6 -0.1
v 0.2 5.6 -0.2
v 0.6 5.6 -0.2
v 0.2 5.6 -0.6
v 0.6 5.6 -0.6
v 0.1 5.6 -0.7
v 0.7 5.6 -0.7
v 0.2 5.7 -0.2
v 0.6 5.7 -0.2
v 0.3 5.7 -0.3
v 0.5 5.7 -0.3
v 0.3 5.7 -0.5
v 0.5 5.7 -0.5
v 0.2 5.7 -0.6
v 0.6 5.7 -0.6
v 0.3 5.8 -0.3
v 0.5 5.8 -0.3
v 0.3 5.8 -0.5
v 0.5 5.8 -0.5

# faces
f 3/3/1 2/3/1 1/3/1
f 4/3/1 2/3/1 3/3/1
f 7/3/1 6/3/1 5/3/1
f 8/3/1 6/3/1 7/3/1
f 11/3/1 10/3/1 9/3/1
f 12/3/1 10/3/1 11/3/1
f 17/2/1 14/2/1 13/2/1
f 18/2/1 16/2/1 15/2/1
f 19/2/1 17/2/1 13/2/1
f 19/2/1 18/2/1 17/2/1
f 20/2/1 16/2/1 18/2/1
f 20/2/1 18/2/1 19/2/1
f 23/3/1 22/3/1 21/3/1
f 24/3/1 22/3/1 23/3/1
f 29/3/1 26/3/1 25/3/1
f 30/3/1 26/3/1 29/3/1
f 31/3/1 28/3/1 27/3/1
f 32/3/1 28/3/1 31/3/1
f 33/3/1 29/3/1 25/3/1
f 34/3/1 29/3/1 33/3/1
f 35/3/1 28/3/1 32/3/1
f 36/3/1 28/3/1 35/3/1
f 37/3/1 29/3/1 34/3/1
f 38/3/1 29/3/1 37/3/1
f 39/3/1 35/3/1 32/3/1
f 40/3/1 35/3/1 39/3/1
f 43/3/1 42/3/1 41/3/1
f 44/3/1 42/3/1 43/3/1
f 47/3/1 46/3/1 45/3/1
f 48/3/1 46/3/1 47/3/1
f 49/3/2 50/3/2 51/3/2
f 51/3/2 50/3/2 52/3/2
f 53/3/2 54/3/2 57/3/2
f 57/3/2 54/3/2 58/3/2
f 55/3/2 56/3/2 59/3/2
f 59/3/2 56/3/2 60/3/2
f 53/3/2 57/3/2 61/3/2
f 61/3/2 57/3/2 62/3/2
f 60/3/2 56/3/2 63/3/2
f 63/3/2 56/3/2 64/3/2
f 62/3/2 57/3/2 65/3/2
f 65/3/2 57/3/2 66/3/2
f 60/3/2 63/3/2 67/3/2
f 67/3/2 63/3/2 68/3/2
f 69/3/2 70/3/2 71/3/2
f 71/3/2 70/3/2 72/3/2
f 73/2/2 74/2/2 77/2/2
f 75/2/2 76/2/2 78/2/2
f 73/2/2 77/2/2 79/2/2
f 77/2/2 78/2/2 79/2/2
f 78/2/2 76/2/2 80/2/2
f 79/2/2 78/2/2 80/2/2
f 81/3/2 82/3/2 83/3/2
f 83/3/2 82/3/2 84/3/2
f 85/3/2 86/3/2 87/3/2
f 87/3/2 86/3/2 88/3/2
f 89/3/2 90/3/2 91/3/2
f 91/3/2 90/3/2 92/3/2
f 93/3/2 94/3/2 95/3/2
f 95/3/2 94/3/2 96/3/2
f 99/3/3 98/3/3 97/3/3
f 100/3/3 98/3/3 99/3/3
f 105/3/3 104/3/3 103/3/3
f 106/3/3 104/3/3 105/3/3
f 107/3/3 102/3/3 101/3/3
f 108/3/3 102/3/3 107/3/3
f 113/2/3 110/2/3 109/2/3
f 114/2/3 110/2/3 113/2/3
f 116/2/3 110/2/3 114/2/3
f 117/2/3 116/2/3 115/2/3
f 118/2/3 110/2/3 116/2/3
f 118/2/3 116/2/3 117/2/3
f 119/3/3 112/3/3 111/3/3
f 120/3/3 112/3/3 119/3/3
f 123/3/3 122/3/3 121/3/3
f 125/3/3 123/3/3 121/3/3
f 125/3/3 124/3/3 123/3/3
f 126/3/3 124/3/3 125/3/3
f 127/3/3 125/3/3 121/3/3
f 128/3/3 125/3/3 127/3/3
f 133/3/3 130/3/3 129/3/3
f 134/3/3 130/3/3 133/3/3
f 135/3/3 132/3/3 131/3/3
f 137/3/3 136/3/3 135/3/3
f 138/3/3 136/3/3 137/3/3
f 139/3/3 135/3/3 131/3/3
f 139/3/3 137/3/3 135/3/3
f 140/3/3 137/3/3 139/3/3
f 143/3/3 142/3/3 141/3/3
f 144/3/3 142/3/3 143/3/3
f 145/3/4 146/3/4 147/3/4
f 147/3/4 146/3/4 148/3/4
f 149/3/4 150/3/4 151/3/4
f 149/3/4 151/3/4 153/3/4
f 151/3/4 152/3/4 153/3/4
f 153/3/4 152/3/4 154/3/4
f 149/3/4 153/3/4 155/3/4
f 155/3/4 153/3/4 156/3/4
f 157/3/4 158/3/4 161/3/4
f 161/3/4 158/3/4 162/3/4
f 159/3/4 160/3/4 163/3/4
f 163/3/4 164/3/4 165/3/4
f 165/3/4 164/3/4 166/3/4
f 159/3/4 163/3/4 167/3/4
f 163/3/4 165/3/4 167/3/4
f 167/3/4 165/3/4 168/3/4
f 169/2/4 170/2/4 173/2/4
f 173/2/4 170/2/4 174/2/4
f 174/2/4 170/2/4 176/2/4
f 175/2/4 176/2/4 177/2/4
f 176/2/4 170/2/4 178/2/4
f 177/2/4 176/2/4 178/2/4
f 171/3/4 172/3/4 179/3/4
f 179/3/4 172/3/4 180/3/4
f 183/3/4 184/3/4 185/3/4
f 185/3/4 184/3/4 186/3/4
f 181/3/4 182/3/4 187/3/4
f 187/3/4 182/3/4 188/3/4
f 189/3/4 190/3/4 191/3/4
f 191/3/4 190/3/4 192/3/4
f 196/3/5 194/3/5 193/3/5
f 197/3/5 194/3/5 196/3/5
f 199/3/5 196/3/5 195/3/5
f 200/3/5 196/3/5 199/3/5
f 201/3/5 198/3/5 197/3/5
f 202/3/5 198/3/5 201/3/5
f 203/3/5 201/3/5 200/3/5
f 204/3/5 201/3/5 203/3/5
f 209/2/5 206/2/5 205/2/5
f 210/2/5 206/2/5 209/2/5
f 211/2/5 208/2/5 207/2/5
f 212/2/5 208/2/5 211/2/5
f 217/2/5 214/2/5 213/2/5
f 218/2/5 214/2/5 217/2/5
f 219/2/5 216/2/5 215/2/5
f 220/2/5 216/2/5 219/2/5
f 223/1/5 222/1/5 221/1/5
f 224/1/5 222/1/5 223/1/5
f 227/3/5 226/3/5 225/3/5
f 228/3/5 226/3/5 227/3/5
f 229/3/5 227/3/5 225/3/5
f 230/3/5 226/3/5 228/3/5
f 231/3/5 229/3/5 225/3/5
f 231/3/5 230/3/5 229/3/5
f 232/3/5 226/3/5 230/3/5
f 232/3/5 230/3/5 231/3/5
f 233/3/6 234/3/6 235/3/6
f 235/3/6 234/3/6 236/3/6
f 237/3/6 238/3/6 241/3/6
f 241/3/6 238/3/6 242/3/6
f 239/3/6 240/3/6 243/3/6
f 243/3/6 240/3/6 244/3/6
f 245/3/6 246/3/6 247/3/6
f 247/3/6 246/3/6 248/3/6
f 249/3/6 250/3/6 251/3/6
f 251/3/6 250/3/6 252/3/6
f 253/3/6 254/3/6 257/3/6
f 257/3/6 254/3/6 258/3/6
f 255/3/6 256/3/6 259/3/6
f 259/3/6 256/3/6 260/3/6
f 261/3/6 262/3/6 263/3/6
f 263/3/6 262/3/6 264/3/6
f 265/3/6 266/3/6 267/3/6
f 267/3/6 266/3/6 268/3/6
f 265/3/6 267/3/6 269/3/6
f 268/3/6 266/3/6 270/3/6
f 265/3/6 269/3/6 271/3/6
f 269/3/6 270/3/6 271/3/6
f 270/3/6 266/3/6 272/3/6
f 271/3/6 270/3/6 272/3/6
f 273/3/6 274/3/6 275/3/6
f 275/3/6 274/3/6 276/3/6
f 273/3/6 275/3/6 277/3/6
f 276/3/6 274/3/6 278/3/6
f 273/3/6 277/3/6 279/3/6
f 277/3/6 278/3/6 279/3/6
f 278/3/6 274/3/6 280/3/6
f 279/3/6 278/3/6 280/3/6
f 281/3/6 282/3/6 283/3/6
f 283/3/6 282/3/6 284/3/6
