# MagicaVoxel @ Ephtracy

# group
o 

# material
mtllib Level3.mtl
usemtl palette

# normals
vn -1 0 0
vn 1 0 0
vn 0 0 1
vn 0 0 -1
vn 0 -1 0
vn 0 1 0

# texcoords
vt 0.306641 0.5
vt 0.958984 0.5
vt 0.974609 0.5

# verts
v 0 2 0
v 0 2 -4
v 0 2.1 -0.1
v 0 2.1 -3.9
v 0 4.7 -0.8
v 0 4.7 -1.1
v 0 5 -0.8
v 0 5 -1.1
v 0 7 0
v 0 7 -0.1
v 0 7 -3.9
v 0 7 -4
v 0 7.1 0
v 0 7.1 -4
v 0.5 3.8 -0.1
v 0.5 3.8 -3.9
v 0.5 4.2 -0.1
v 0.5 4.2 -3.9
v 0.9 3.7 -3.7
v 0.9 3.7 -3.9
v 0.9 3.8 -3.7
v 0.9 3.8 -3.9
v 0.9 6.2 -0.2
v 0.9 6.2 -3.9
v 0.9 6.6 -0.2
v 0.9 6.6 -3.9
v 1.4 2.1 -2.1
v 1.4 2.1 -3.5
v 1.4 4.5 -2.1
v 1.4 4.5 -3.5
v 2.5 2.1 -2.2
v 2.5 2.1 -2.5
v 2.5 2.7 -2.2
v 2.5 2.7 -2.5
v 2.6 5.4 -0.1
v 2.6 5.4 -3.7
v 2.6 5.7 -0.1
v 2.6 5.7 -3.7
v 2.7 2.1 -1
v 2.7 2.1 -1.8
v 2.7 2.1 -2.8
v 2.7 2.1 -3.6
v 2.7 3.1 -1
v 2.7 3.1 -1.8
v 2.7 3.8 -2.8
v 2.7 3.8 -3.6
v 3.9 2.1 -0.1
v 3.9 2.1 -3.9
v 3.9 7 -0.1
v 3.9 7 -3.9
v 0.1 2.1 -0.1
v 0.1 2.1 -3.9
v 0.1 4.7 -0.8
v 0.1 4.7 -1.1
v 0.1 5 -0.8
v 0.1 5 -1.1
v 0.1 7 -0.1
v 0.1 7 -3.9
v 1 3.7 -3.7
v 1 3.7 -3.9
v 1 3.8 -0.1
v 1 3.8 -3.7
v 1 4.2 -0.1
v 1 4.2 -3.9
v 1.4 6.2 -0.2
v 1.4 6.2 -3.9
v 1.4 6.6 -0.2
v 1.4 6.6 -3.9
v 2.1 2.1 -2.1
v 2.1 2.1 -3.5
v 2.1 4.5 -2.1
v 2.1 4.5 -3.5
v 3 5.4 -0.1
v 3 5.4 -3.7
v 3 5.7 -0.1
v 3 5.7 -3.7
v 3.4 2.1 -1
v 3.4 2.1 -1.7
v 3.4 2.1 -1.8
v 3.4 2.1 -2.8
v 3.4 2.1 -3.6
v 3.4 3 -1
v 3.4 3 -1.7
v 3.4 3.1 -1
v 3.4 3.1 -1.8
v 3.4 3.8 -2.8
v 3.4 3.8 -3.6
v 3.6 2.1 -2.2
v 3.6 2.1 -2.3
v 3.6 2.1 -2.4
v 3.6 2.1 -2.5
v 3.6 2.6 -2.3
v 3.6 2.6 -2.4
v 3.6 2.7 -2.2
v 3.6 2.7 -2.5
v 3.8 4.7 -0.8
v 3.8 4.7 -1.1
v 3.8 4.8 -0.9
v 3.8 4.8 -1
v 3.8 4.9 -0.9
v 3.8 4.9 -1
v 3.8 5 -0.8
v 3.8 5 -1.1
v 4 2 0
v 4 2 -4
v 4 2.1 -0.1
v 4 2.1 -3.9
v 4 7 0
v 4 7 -0.1
v 4 7 -3.9
v 4 7 -4
v 4 7.1 0
v 4 7.1 -4
v 0 2 0
v 0 7 0
v 0 7.1 0
v 0.1 2.1 0
v 0.1 7 0
v 0.5 3.8 0
v 0.5 4.2 0
v 1 3.8 0
v 1 4.2 0
v 2.6 5.4 0
v 2.6 5.7 0
v 3 5.4 0
v 3 5.7 0
v 3.9 2.1 0
v 3.9 7 0
v 4 2 0
v 4 7 0
v 4 7.1 0
v 0.9 6.2 -0.2
v 0.9 6.6 -0.2
v 1 6.3 -0.2
v 1 6.5 -0.2
v 1.3 6.3 -0.2
v 1.3 6.5 -0.2
v 1.4 6.2 -0.2
v 1.4 6.6 -0.2
v 0.1 4.7 -0.8
v 0.1 5 -0.8
v 3.8 4.7 -0.8
v 3.8 5 -0.8
v 2.7 2.1 -1
v 2.7 3.1 -1
v 2.8 2.1 -1
v 2.8 3 -1
v 3.4 2.1 -1
v 3.4 3 -1
v 3.4 3.1 -1
v 1.4 2.1 -2.1
v 1.4 4.5 -2.1
v 2.1 2.1 -2.1
v 2.1 4.5 -2.1
v 2.5 2.1 -2.2
v 2.5 2.7 -2.2
v 3.6 2.1 -2.2
v 3.6 2.7 -2.2
v 2.7 2.1 -2.8
v 2.7 3.8 -2.8
v 3.4 2.1 -2.8
v 3.4 3.8 -2.8
v 0.9 3.7 -3.7
v 0.9 3.8 -3.7
v 1 3.7 -3.7
v 1 3.8 -3.7
v 0.1 2.1 -3.9
v 0.1 7 -3.9
v 0.5 3.8 -3.9
v 0.5 4.2 -3.9
v 0.9 3.7 -3.9
v 0.9 3.8 -3.9
v 0.9 6.2 -3.9
v 0.9 6.6 -3.9
v 1 3.7 -3.9
v 1 4.2 -3.9
v 1.4 6.2 -3.9
v 1.4 6.6 -3.9
v 3.9 2.1 -3.9
v 3.9 7 -3.9
v 0.1 2.1 -0.1
v 0.1 7 -0.1
v 0.5 3.8 -0.1
v 0.5 4.2 -0.1
v 1 3.8 -0.1
v 1 4.2 -0.1
v 2.6 5.4 -0.1
v 2.6 5.7 -0.1
v 3 5.4 -0.1
v 3 5.7 -0.1
v 3.9 2.1 -0.1
v 3.9 7 -0.1
v 0.1 4.7 -1.1
v 0.1 5 -1.1
v 3.8 4.7 -1.1
v 3.8 5 -1.1
v 2.7 2.1 -1.8
v 2.7 3.1 -1.8
v 3.4 2.1 -1.8
v 3.4 3.1 -1.8
v 2.5 2.1 -2.5
v 2.5 2.7 -2.5
v 3.6 2.1 -2.5
v 3.6 2.7 -2.5
v 1.4 2.1 -3.5
v 1.4 4.5 -3.5
v 2.1 2.1 -3.5
v 2.1 4.5 -3.5
v 2.7 2.1 -3.6
v 2.7 3.8 -3.6
v 3.4 2.1 -3.6
v 3.4 3.8 -3.6
v 2.6 5.4 -3.7
v 2.6 5.7 -3.7
v 3 5.4 -3.7
v 3 5.7 -3.7
v 0 2 -4
v 0 7 -4
v 0 7.1 -4
v 0.1 2.1 -4
v 0.1 7 -4
v 0.5 3.8 -4
v 0.5 4.2 -4
v 0.9 3.7 -4
v 0.9 3.8 -4
v 0.9 6.2 -4
v 0.9 6.6 -4
v 1 3.7 -4
v 1 4.2 -4
v 1.4 6.2 -4
v 1.4 6.6 -4
v 3.9 2.1 -4
v 3.9 7 -4
v 4 2 -4
v 4 7 -4
v 4 7.1 -4
v 0 2 0
v 4 2 0
v 0.1 2 -0.1
v 3.9 2 -0.1
v 1.4 2 -2.1
v 2.1 2 -2.1
v 2.5 2 -2.2
v 3.6 2 -2.2
v 2.5 2 -2.5
v 3.6 2 -2.5
v 2.7 2 -2.8
v 3.4 2 -2.8
v 1.4 2 -3.5
v 2.1 2 -3.5
v 2.7 2 -3.6
v 3.4 2 -3.6
v 0.1 2 -3.9
v 3.9 2 -3.9
v 0 2 -4
v 4 2 -4
v 0.9 3.7 -3.7
v 1 3.7 -3.7
v 0.9 3.7 -3.9
v 1 3.7 -3.9
v 0.5 3.8 -0.1
v 1 3.8 -0.1
v 0.9 3.8 -3.7
v 1 3.8 -3.7
v 0.5 3.8 -3.9
v 0.9 3.8 -3.9
v 0.1 4.7 -0.8
v 3.8 4.7 -0.8
v 0.1 4.7 -1.1
v 3.8 4.7 -1.1
v 2.6 5.4 -0.1
v 3 5.4 -0.1
v 2.6 5.4 -3.7
v 3 5.4 -3.7
v 0.9 6.2 -0.2
v 1.4 6.2 -0.2
v 0.9 6.2 -3.9
v 1.4 6.2 -3.9
v 0.1 7 -0.1
v 3.9 7 -0.1
v 0.1 7 -3.9
v 3.9 7 -3.9
v 0.1 2.1 -0.1
v 3.9 2.1 -0.1
v 2.7 2.1 -1
v 2.8 2.1 -1
v 3.4 2.1 -1
v 3.4 2.1 -1.7
v 2.7 2.1 -1.8
v 3.4 2.1 -1.8
v 1.4 2.1 -2.1
v 2.1 2.1 -2.1
v 2.5 2.1 -2.2
v 3.6 2.1 -2.2
v 3.6 2.1 -2.3
v 3.6 2.1 -2.4
v 2.5 2.1 -2.5
v 3.6 2.1 -2.5
v 2.7 2.1 -2.8
v 3.4 2.1 -2.8
v 1.4 2.1 -3.5
v 2.1 2.1 -3.5
v 2.7 2.1 -3.6
v 3.4 2.1 -3.6
v 0.1 2.1 -3.9
v 3.9 2.1 -3.9
v 2.5 2.7 -2.2
v 3.6 2.7 -2.2
v 2.5 2.7 -2.5
v 3.6 2.7 -2.5
v 2.7 3.1 -1
v 3.4 3.1 -1
v 2.7 3.1 -1.8
v 3.4 3.1 -1.8
v 2.7 3.8 -2.8
v 3.4 3.8 -2.8
v 2.7 3.8 -3.6
v 3.4 3.8 -3.6
v 0.5 4.2 -0.1
v 1 4.2 -0.1
v 0.5 4.2 -3.9
v 1 4.2 -3.9
v 1.4 4.5 -2.1
v 2.1 4.5 -2.1
v 1.4 4.5 -3.5
v 2.1 4.5 -3.5
v 0.1 5 -0.8
v 3.8 5 -0.8
v 0.1 5 -1.1
v 3.8 5 -1.1
v 2.6 5.7 -0.1
v 3 5.7 -0.1
v 2.6 5.7 -3.7
v 3 5.7 -3.7
v 0.9 6.6 -0.2
v 1.4 6.6 -0.2
v 0.9 6.6 -3.9
v 1.4 6.6 -3.9
v 0 7.1 0
v 4 7.1 0
v 0 7.1 -4
v 4 7.1 -4

# faces
f 3/1/1 2/1/1 1/1/1
f 4/1/1 2/1/1 3/1/1
f 5/3/1 4/3/1 3/3/1
f 6/3/1 4/3/1 5/3/1
f 7/3/1 5/3/1 3/3/1
f 7/2/1 6/2/1 5/2/1
f 8/3/1 4/3/1 6/3/1
f 8/2/1 6/2/1 7/2/1
f 9/1/1 3/1/1 1/1/1
f 10/3/1 7/3/1 3/3/1
f 10/1/1 3/1/1 9/1/1
f 10/3/1 8/3/1 7/3/1
f 11/3/1 4/3/1 8/3/1
f 11/3/1 8/3/1 10/3/1
f 11/1/1 2/1/1 4/1/1
f 12/1/1 2/1/1 11/1/1
f 13/3/1 10/3/1 9/3/1
f 13/3/1 11/3/1 10/3/1
f 13/3/1 12/3/1 11/3/1
f 14/3/1 12/3/1 13/3/1
f 17/2/1 16/2/1 15/2/1
f 18/2/1 16/2/1 17/2/1
f 21/2/1 20/2/1 19/2/1
f 22/2/1 20/2/1 21/2/1
f 25/2/1 24/2/1 23/2/1
f 26/2/1 24/2/1 25/2/1
f 29/2/1 28/2/1 27/2/1
f 30/2/1 28/2/1 29/2/1
f 33/2/1 32/2/1 31/2/1
f 34/2/1 32/2/1 33/2/1
f 37/2/1 36/2/1 35/2/1
f 38/2/1 36/2/1 37/2/1
f 43/2/1 40/2/1 39/2/1
f 44/2/1 40/2/1 43/2/1
f 45/2/1 42/2/1 41/2/1
f 46/2/1 42/2/1 45/2/1
f 49/3/1 48/3/1 47/3/1
f 50/3/1 48/3/1 49/3/1
f 51/3/2 52/3/2 53/3/2
f 53/3/2 52/3/2 54/3/2
f 51/3/2 53/3/2 55/3/2
f 54/3/2 52/3/2 56/3/2
f 51/3/2 55/3/2 57/3/2
f 55/3/2 56/3/2 57/3/2
f 56/3/2 52/3/2 58/3/2
f 57/3/2 56/3/2 58/3/2
f 59/2/2 60/2/2 62/2/2
f 61/2/2 62/2/2 63/2/2
f 62/2/2 60/2/2 64/2/2
f 63/2/2 62/2/2 64/2/2
f 65/2/2 66/2/2 67/2/2
f 67/2/2 66/2/2 68/2/2
f 69/2/2 70/2/2 71/2/2
f 71/2/2 70/2/2 72/2/2
f 73/2/2 74/2/2 75/2/2
f 75/2/2 74/2/2 76/2/2
f 77/1/2 78/1/2 82/1/2
f 78/2/2 79/2/2 83/2/2
f 82/1/2 78/1/2 83/1/2
f 82/2/2 83/2/2 84/2/2
f 83/2/2 79/2/2 85/2/2
f 84/2/2 83/2/2 85/2/2
f 80/2/2 81/2/2 86/2/2
f 86/2/2 81/2/2 87/2/2
f 88/2/2 89/2/2 92/2/2
f 89/1/2 90/1/2 92/1/2
f 90/2/2 91/2/2 93/2/2
f 92/1/2 90/1/2 93/1/2
f 88/2/2 92/2/2 94/2/2
f 92/2/2 93/2/2 94/2/2
f 93/2/2 91/2/2 95/2/2
f 94/2/2 93/2/2 95/2/2
f 96/2/2 97/2/2 98/2/2
f 98/2/2 97/2/2 99/2/2
f 96/2/2 98/2/2 100/2/2
f 98/1/2 99/1/2 100/1/2
f 99/2/2 97/2/2 101/2/2
f 100/1/2 99/1/2 101/1/2
f 96/2/2 100/2/2 102/2/2
f 100/2/2 101/2/2 102/2/2
f 101/2/2 97/2/2 103/2/2
f 102/2/2 101/2/2 103/2/2
f 104/1/2 105/1/2 106/1/2
f 106/1/2 105/1/2 107/1/2
f 104/1/2 106/1/2 108/1/2
f 106/3/2 107/3/2 109/3/2
f 108/1/2 106/1/2 109/1/2
f 107/1/2 105/1/2 110/1/2
f 109/3/2 107/3/2 110/3/2
f 110/1/2 105/1/2 111/1/2
f 108/3/2 109/3/2 112/3/2
f 109/3/2 110/3/2 112/3/2
f 110/3/2 111/3/2 112/3/2
f 112/3/2 111/3/2 113/3/2
f 117/1/3 115/1/3 114/1/3
f 118/3/3 116/3/3 115/3/3
f 118/1/3 115/1/3 117/1/3
f 119/3/3 118/3/3 117/3/3
f 120/3/3 118/3/3 119/3/3
f 121/3/3 119/3/3 117/3/3
f 121/2/3 120/2/3 119/2/3
f 122/3/3 118/3/3 120/3/3
f 122/2/3 120/2/3 121/2/3
f 123/3/3 122/3/3 121/3/3
f 123/3/3 118/3/3 122/3/3
f 124/3/3 118/3/3 123/3/3
f 125/3/3 123/3/3 121/3/3
f 125/2/3 124/2/3 123/2/3
f 126/3/3 118/3/3 124/3/3
f 126/2/3 124/2/3 125/2/3
f 127/1/3 117/1/3 114/1/3
f 127/3/3 121/3/3 117/3/3
f 127/3/3 126/3/3 125/3/3
f 127/3/3 125/3/3 121/3/3
f 128/3/3 118/3/3 126/3/3
f 128/3/3 126/3/3 127/3/3
f 128/3/3 116/3/3 118/3/3
f 129/1/3 127/1/3 114/1/3
f 129/1/3 128/1/3 127/1/3
f 130/3/3 116/3/3 128/3/3
f 130/1/3 128/1/3 129/1/3
f 131/3/3 116/3/3 130/3/3
f 134/2/3 133/2/3 132/2/3
f 135/2/3 133/2/3 134/2/3
f 136/2/3 134/2/3 132/2/3
f 136/1/3 135/1/3 134/1/3
f 137/2/3 133/2/3 135/2/3
f 137/1/3 135/1/3 136/1/3
f 138/2/3 136/2/3 132/2/3
f 138/2/3 137/2/3 136/2/3
f 139/2/3 133/2/3 137/2/3
f 139/2/3 137/2/3 138/2/3
f 142/2/3 141/2/3 140/2/3
f 143/2/3 141/2/3 142/2/3
f 146/2/3 145/2/3 144/2/3
f 147/2/3 145/2/3 146/2/3
f 148/1/3 147/1/3 146/1/3
f 149/2/3 145/2/3 147/2/3
f 149/1/3 147/1/3 148/1/3
f 150/2/3 145/2/3 149/2/3
f 153/2/3 152/2/3 151/2/3
f 154/2/3 152/2/3 153/2/3
f 157/2/3 156/2/3 155/2/3
f 158/2/3 156/2/3 157/2/3
f 161/2/3 160/2/3 159/2/3
f 162/2/3 160/2/3 161/2/3
f 165/2/3 164/2/3 163/2/3
f 166/2/3 164/2/3 165/2/3
f 169/3/3 168/3/3 167/3/3
f 170/3/3 168/3/3 169/3/3
f 171/3/3 169/3/3 167/3/3
f 172/3/3 169/3/3 171/3/3
f 173/3/3 168/3/3 170/3/3
f 174/3/3 168/3/3 173/3/3
f 175/3/3 171/3/3 167/3/3
f 176/3/3 173/3/3 170/3/3
f 177/3/3 173/3/3 176/3/3
f 177/3/3 176/3/3 175/3/3
f 178/3/3 168/3/3 174/3/3
f 179/3/3 177/3/3 175/3/3
f 179/3/3 178/3/3 177/3/3
f 179/3/3 175/3/3 167/3/3
f 180/3/3 168/3/3 178/3/3
f 180/3/3 178/3/3 179/3/3
f 181/3/4 182/3/4 183/3/4
f 183/3/4 182/3/4 184/3/4
f 181/3/4 183/3/4 185/3/4
f 184/3/4 182/3/4 186/3/4
f 186/3/4 182/3/4 187/3/4
f 185/3/4 186/3/4 187/3/4
f 187/3/4 182/3/4 188/3/4
f 185/3/4 187/3/4 189/3/4
f 188/3/4 182/3/4 190/3/4
f 181/3/4 185/3/4 191/3/4
f 189/3/4 190/3/4 191/3/4
f 185/3/4 189/3/4 191/3/4
f 190/3/4 182/3/4 192/3/4
f 191/3/4 190/3/4 192/3/4
f 193/2/4 194/2/4 195/2/4
f 195/2/4 194/2/4 196/2/4
f 197/2/4 198/2/4 199/2/4
f 199/2/4 198/2/4 200/2/4
f 201/2/4 202/2/4 203/2/4
f 203/2/4 202/2/4 204/2/4
f 205/2/4 206/2/4 207/2/4
f 207/2/4 206/2/4 208/2/4
f 209/2/4 210/2/4 211/2/4
f 211/2/4 210/2/4 212/2/4
f 213/2/4 214/2/4 215/2/4
f 215/2/4 214/2/4 216/2/4
f 217/1/4 218/1/4 220/1/4
f 218/3/4 219/3/4 221/3/4
f 220/1/4 218/1/4 221/1/4
f 220/3/4 221/3/4 222/3/4
f 222/3/4 221/3/4 223/3/4
f 220/3/4 222/3/4 224/3/4
f 222/2/4 223/2/4 225/2/4
f 224/3/4 222/3/4 225/3/4
f 223/3/4 221/3/4 226/3/4
f 226/3/4 221/3/4 227/3/4
f 220/3/4 224/3/4 228/3/4
f 224/2/4 225/2/4 228/2/4
f 225/2/4 223/2/4 229/2/4
f 228/2/4 225/2/4 229/2/4
f 223/3/4 226/3/4 229/3/4
f 226/2/4 227/2/4 230/2/4
f 229/3/4 226/3/4 230/3/4
f 228/3/4 229/3/4 230/3/4
f 227/3/4 221/3/4 231/3/4
f 230/2/4 227/2/4 231/2/4
f 217/1/4 220/1/4 232/1/4
f 220/3/4 228/3/4 232/3/4
f 230/3/4 231/3/4 232/3/4
f 228/3/4 230/3/4 232/3/4
f 231/3/4 221/3/4 233/3/4
f 232/3/4 231/3/4 233/3/4
f 221/3/4 219/3/4 233/3/4
f 217/1/4 232/1/4 234/1/4
f 232/1/4 233/1/4 234/1/4
f 233/3/4 219/3/4 235/3/4
f 234/1/4 233/1/4 235/1/4
f 235/3/4 219/3/4 236/3/4
f 239/1/5 238/1/5 237/1/5
f 240/1/5 238/1/5 239/1/5
f 241/2/5 240/2/5 239/2/5
f 242/2/5 240/2/5 241/2/5
f 243/2/5 240/2/5 242/2/5
f 244/2/5 240/2/5 243/2/5
f 245/2/5 243/2/5 242/2/5
f 245/1/5 244/1/5 243/1/5
f 246/2/5 240/2/5 244/2/5
f 246/1/5 244/1/5 245/1/5
f 247/2/5 246/2/5 245/2/5
f 248/2/5 246/2/5 247/2/5
f 249/2/5 241/2/5 239/2/5
f 249/1/5 242/1/5 241/1/5
f 250/2/5 245/2/5 242/2/5
f 250/1/5 242/1/5 249/1/5
f 250/2/5 247/2/5 245/2/5
f 251/1/5 248/1/5 247/1/5
f 251/2/5 247/2/5 250/2/5
f 251/2/5 250/2/5 249/2/5
f 252/2/5 246/2/5 248/2/5
f 252/1/5 248/1/5 251/1/5
f 253/1/5 239/1/5 237/1/5
f 253/2/5 251/2/5 249/2/5
f 253/2/5 252/2/5 251/2/5
f 253/2/5 249/2/5 239/2/5
f 254/2/5 246/2/5 252/2/5
f 254/2/5 252/2/5 253/2/5
f 254/1/5 238/1/5 240/1/5
f 254/2/5 240/2/5 246/2/5
f 255/1/5 253/1/5 237/1/5
f 255/1/5 254/1/5 253/1/5
f 256/1/5 238/1/5 254/1/5
f 256/1/5 254/1/5 255/1/5
f 259/2/5 258/2/5 257/2/5
f 260/2/5 258/2/5 259/2/5
f 263/2/5 262/2/5 261/2/5
f 264/2/5 262/2/5 263/2/5
f 265/2/5 263/2/5 261/2/5
f 266/2/5 263/2/5 265/2/5
f 269/2/5 268/2/5 267/2/5
f 270/2/5 268/2/5 269/2/5
f 273/2/5 272/2/5 271/2/5
f 274/2/5 272/2/5 273/2/5
f 277/2/5 276/2/5 275/2/5
f 278/2/5 276/2/5 277/2/5
f 281/3/5 280/3/5 279/3/5
f 282/3/5 280/3/5 281/3/5
f 283/2/6 284/2/6 285/2/6
f 285/2/6 284/2/6 286/2/6
f 286/2/6 284/2/6 287/2/6
f 287/2/6 284/2/6 288/2/6
f 283/2/6 285/2/6 289/2/6
f 288/2/6 284/2/6 290/2/6
f 283/2/6 289/2/6 291/2/6
f 289/2/6 290/2/6 291/2/6
f 291/2/6 290/2/6 292/2/6
f 292/2/6 290/2/6 293/2/6
f 290/2/6 284/2/6 294/2/6
f 293/2/6 290/2/6 294/2/6
f 294/2/6 284/2/6 295/2/6
f 295/2/6 284/2/6 296/2/6
f 292/2/6 293/2/6 297/2/6
f 296/2/6 284/2/6 298/2/6
f 297/2/6 298/2/6 299/2/6
f 299/2/6 298/2/6 300/2/6
f 283/2/6 291/2/6 301/2/6
f 292/2/6 297/2/6 302/2/6
f 297/2/6 299/2/6 302/2/6
f 302/2/6 299/2/6 303/2/6
f 301/2/6 302/2/6 303/2/6
f 300/2/6 298/2/6 304/2/6
f 283/2/6 301/2/6 305/2/6
f 303/2/6 304/2/6 305/2/6
f 301/2/6 303/2/6 305/2/6
f 304/2/6 298/2/6 306/2/6
f 305/2/6 304/2/6 306/2/6
f 298/2/6 284/2/6 306/2/6
f 307/2/6 308/2/6 309/2/6
f 309/2/6 308/2/6 310/2/6
f 311/2/6 312/2/6 313/2/6
f 313/2/6 312/2/6 314/2/6
f 315/2/6 316/2/6 317/2/6
f 317/2/6 316/2/6 318/2/6
f 319/2/6 320/2/6 321/2/6
f 321/2/6 320/2/6 322/2/6
f 323/2/6 324/2/6 325/2/6
f 325/2/6 324/2/6 326/2/6
f 327/2/6 328/2/6 329/2/6
f 329/2/6 328/2/6 330/2/6
f 331/2/6 332/2/6 333/2/6
f 333/2/6 332/2/6 334/2/6
f 335/2/6 336/2/6 337/2/6
f 337/2/6 336/2/6 338/2/6
f 339/3/6 340/3/6 341/3/6
f 341/3/6 340/3/6 342/3/6
