# MagicaVoxel @ Ephtracy

# group
o 

# material
mtllib Level2.mtl
usemtl palette

# normals
vn -1 0 0
vn 1 0 0
vn 0 0 1
vn 0 0 -1
vn 0 -1 0
vn 0 1 0

# texcoords
vt 0.841797 0.5
vt 0.958984 0.5
vt 0.990234 0.5

# verts
v 0 2 0
v 0 2 -4
v 0 4.8 0
v 0 4.8 -4
v 0.3 2.1 -0.3
v 0.3 2.1 -1.1
v 0.3 2.1 -1.2
v 0.3 2.1 -1.4
v 0.3 2.1 -1.5
v 0.3 2.1 -2.3
v 0.3 2.1 -2.6
v 0.3 2.1 -2.8
v 0.3 2.5 -2.6
v 0.3 2.5 -2.8
v 0.3 2.6 -1.2
v 0.3 2.6 -1.4
v 0.3 2.9 -1.5
v 0.3 2.9 -2.3
v 0.3 3.7 -0.3
v 0.3 3.7 -1.1
v 0.4 2.1 -3
v 0.4 2.1 -3.5
v 0.4 2.9 -3
v 0.4 2.9 -3.5
v 0.8 2.1 -1.4
v 0.8 2.1 -1.7
v 0.8 2.4 -1.4
v 0.8 2.4 -1.7
v 0.9 2.1 -0.5
v 0.9 2.1 -1.1
v 0.9 2.1 -2
v 0.9 2.1 -2.5
v 0.9 2.5 -0.5
v 0.9 2.5 -1.1
v 0.9 3 -2
v 0.9 3 -2.5
v 1 2.1 -0.3
v 1 2.1 -0.4
v 1 2.6 -0.3
v 1 2.6 -0.4
v 1.2 2.1 -1.2
v 1.2 2.1 -1.4
v 1.2 2.4 -1.2
v 1.2 2.4 -1.4
v 1.3 2.1 -3
v 1.3 2.1 -3.5
v 1.3 2.7 -3
v 1.3 2.7 -3.5
v 1.5 2.1 -1.4
v 1.5 2.1 -2
v 1.5 4.2 -1.4
v 1.5 4.2 -2
v 1.6 2.1 -0.3
v 1.6 2.1 -1.2
v 1.6 2.1 -2.5
v 1.6 2.1 -2.8
v 1.6 2.5 -2.5
v 1.6 2.5 -2.8
v 1.6 3 -0.3
v 1.6 3 -1.2
v 1.9 2.1 -3
v 1.9 2.1 -3.2
v 1.9 2.6 -3
v 1.9 2.6 -3.2
v 2.1 2.1 -2.2
v 2.1 2.1 -2.6
v 2.1 2.2 -2.2
v 2.1 2.2 -2.6
v 2.4 2.1 -1.7
v 2.4 2.1 -1.9
v 2.4 2.9 -1.7
v 2.4 2.9 -1.9
v 2.5 2.1 -0.5
v 2.5 2.1 -1.5
v 2.5 2.1 -2.1
v 2.5 2.1 -2.6
v 2.5 2.4 -0.5
v 2.5 2.4 -1.5
v 2.5 2.9 -2.1
v 2.5 2.9 -2.6
v 3 2.1 -3.4
v 3 2.1 -3.6
v 3 2.4 -3.4
v 3 2.4 -3.6
v 3.1 2.1 -0.3
v 3.1 2.1 -0.5
v 3.1 2.1 -0.8
v 3.1 2.1 -1
v 3.1 2.3 -0.8
v 3.1 2.3 -1
v 3.1 2.8 -0.3
v 3.1 2.8 -0.5
v 3.2 2.1 -2.2
v 3.2 2.1 -2.7
v 3.2 3 -2.2
v 3.2 3 -2.7
v 3.3 2.1 -1.2
v 3.3 2.1 -1.5
v 3.3 2.9 -1.2
v 3.3 2.9 -1.5
v 3.5 2.1 -2.9
v 3.5 2.1 -3.3
v 3.5 2.7 -2.9
v 3.5 2.7 -3.3
v 3.8 2.1 -0.2
v 3.8 2.1 -3.8
v 3.8 2.3 -0.2
v 3.8 2.3 -3.8
v 3.9 2.3 -0.1
v 3.9 2.3 -3.9
v 3.9 4.8 -0.1
v 3.9 4.8 -3.9
v 0.1 2.3 -0.1
v 0.1 2.3 -3.9
v 0.1 4.8 -0.1
v 0.1 4.8 -3.9
v 0.2 2.1 -0.2
v 0.2 2.1 -3.8
v 0.2 2.3 -0.2
v 0.2 2.3 -3.8
v 0.5 2.1 -1.2
v 0.5 2.1 -1.4
v 0.5 2.6 -1.2
v 0.5 2.6 -1.4
v 0.7 2.1 -1.5
v 0.7 2.1 -2.3
v 0.7 2.9 -1.5
v 0.7 2.9 -2.3
v 0.8 2.1 -0.3
v 0.8 2.1 -1.1
v 0.8 3.7 -0.3
v 0.8 3.7 -1.1
v 0.9 2.1 -3
v 0.9 2.1 -3.5
v 0.9 2.9 -3
v 0.9 2.9 -3.5
v 1.1 2.1 -1.4
v 1.1 2.1 -1.7
v 1.1 2.4 -1.4
v 1.1 2.4 -1.7
v 1.2 2.1 -0.3
v 1.2 2.1 -0.4
v 1.2 2.6 -0.3
v 1.2 2.6 -0.4
v 1.3 2.1 -2
v 1.3 2.1 -2.5
v 1.3 2.1 -2.6
v 1.3 2.1 -2.8
v 1.3 2.5 -2.6
v 1.3 2.5 -2.8
v 1.3 3 -2
v 1.3 3 -2.5
v 1.4 2.1 -0.5
v 1.4 2.1 -1.1
v 1.4 2.1 -1.2
v 1.4 2.1 -1.4
v 1.4 2.4 -1.2
v 1.4 2.4 -1.4
v 1.4 2.5 -0.5
v 1.4 2.5 -1.1
v 1.6 2.1 -3
v 1.6 2.1 -3.5
v 1.6 2.7 -3
v 1.6 2.7 -3.5
v 1.9 2.1 -2.5
v 1.9 2.1 -2.8
v 1.9 2.5 -2.5
v 1.9 2.5 -2.8
v 2 2.1 -1.4
v 2 2.1 -2
v 2 4.2 -1.4
v 2 4.2 -2
v 2.1 2.1 -0.3
v 2.1 2.1 -1.2
v 2.1 3 -0.3
v 2.1 3 -1.2
v 2.3 2.1 -2.2
v 2.3 2.1 -2.6
v 2.3 2.2 -2.2
v 2.3 2.2 -2.6
v 2.8 2.1 -0.5
v 2.8 2.1 -1.5
v 2.8 2.4 -0.5
v 2.8 2.4 -1.5
v 3 2.1 -2.1
v 3 2.1 -2.6
v 3 2.1 -3
v 3 2.1 -3.2
v 3 2.6 -3
v 3 2.6 -3.2
v 3 2.9 -2.1
v 3 2.9 -2.6
v 3.2 2.1 -1.7
v 3.2 2.1 -1.9
v 3.2 2.9 -1.7
v 3.2 2.9 -1.9
v 3.4 2.1 -0.8
v 3.4 2.1 -1
v 3.4 2.1 -1.2
v 3.4 2.1 -1.5
v 3.4 2.1 -3.4
v 3.4 2.1 -3.6
v 3.4 2.3 -0.8
v 3.4 2.3 -1
v 3.4 2.4 -3.4
v 3.4 2.4 -3.6
v 3.4 2.9 -1.2
v 3.4 2.9 -1.5
v 3.5 2.1 -2.2
v 3.5 2.1 -2.7
v 3.5 3 -2.2
v 3.5 3 -2.7
v 3.6 2.1 -0.3
v 3.6 2.1 -0.5
v 3.6 2.8 -0.3
v 3.6 2.8 -0.5
v 3.7 2.1 -2.9
v 3.7 2.1 -3.3
v 3.7 2.7 -2.9
v 3.7 2.7 -3.3
v 4 2 0
v 4 2 -4
v 4 4.8 0
v 4 4.8 -4
v 0 2 0
v 0 4.8 0
v 4 2 0
v 4 4.8 0
v 0.3 2.1 -0.3
v 0.3 3.7 -0.3
v 0.8 2.1 -0.3
v 0.8 3.7 -0.3
v 1 2.1 -0.3
v 1 2.6 -0.3
v 1.2 2.1 -0.3
v 1.2 2.6 -0.3
v 1.6 2.1 -0.3
v 1.6 3 -0.3
v 2.1 2.1 -0.3
v 2.1 3 -0.3
v 3.1 2.1 -0.3
v 3.1 2.8 -0.3
v 3.6 2.1 -0.3
v 3.6 2.8 -0.3
v 0.9 2.1 -0.5
v 0.9 2.5 -0.5
v 1.4 2.1 -0.5
v 1.4 2.5 -0.5
v 2.5 2.1 -0.5
v 2.5 2.4 -0.5
v 2.8 2.1 -0.5
v 2.8 2.4 -0.5
v 3.1 2.1 -0.8
v 3.1 2.3 -0.8
v 3.4 2.1 -0.8
v 3.4 2.3 -0.8
v 0.3 2.1 -1.2
v 0.3 2.6 -1.2
v 0.5 2.1 -1.2
v 0.5 2.6 -1.2
v 1.2 2.1 -1.2
v 1.2 2.4 -1.2
v 1.4 2.1 -1.2
v 1.4 2.4 -1.2
v 3.3 2.1 -1.2
v 3.3 2.9 -1.2
v 3.4 2.1 -1.2
v 3.4 2.9 -1.2
v 0.8 2.1 -1.4
v 0.8 2.4 -1.4
v 1.1 2.1 -1.4
v 1.1 2.4 -1.4
v 1.5 2.1 -1.4
v 1.5 4.2 -1.4
v 2 2.1 -1.4
v 2 4.2 -1.4
v 0.3 2.1 -1.5
v 0.3 2.9 -1.5
v 0.7 2.1 -1.5
v 0.7 2.9 -1.5
v 2.4 2.1 -1.7
v 2.4 2.9 -1.7
v 3.2 2.1 -1.7
v 3.2 2.9 -1.7
v 0.9 2.1 -2
v 0.9 3 -2
v 1.3 2.1 -2
v 1.3 3 -2
v 2.5 2.1 -2.1
v 2.5 2.9 -2.1
v 3 2.1 -2.1
v 3 2.9 -2.1
v 2.1 2.1 -2.2
v 2.1 2.2 -2.2
v 2.3 2.1 -2.2
v 2.3 2.2 -2.2
v 3.2 2.1 -2.2
v 3.2 3 -2.2
v 3.5 2.1 -2.2
v 3.5 3 -2.2
v 1.6 2.1 -2.5
v 1.6 2.5 -2.5
v 1.9 2.1 -2.5
v 1.9 2.5 -2.5
v 0.3 2.1 -2.6
v 0.3 2.5 -2.6
v 1.3 2.1 -2.6
v 1.3 2.5 -2.6
v 3.5 2.1 -2.9
v 3.5 2.7 -2.9
v 3.7 2.1 -2.9
v 3.7 2.7 -2.9
v 0.4 2.1 -3
v 0.4 2.9 -3
v 0.9 2.1 -3
v 0.9 2.9 -3
v 1.3 2.1 -3
v 1.3 2.7 -3
v 1.6 2.1 -3
v 1.6 2.7 -3
v 1.9 2.1 -3
v 1.9 2.6 -3
v 3 2.1 -3
v 3 2.6 -3
v 3 2.1 -3.4
v 3 2.4 -3.4
v 3.4 2.1 -3.4
v 3.4 2.4 -3.4
v 0.2 2.1 -3.8
v 0.2 2.3 -3.8
v 3.8 2.1 -3.8
v 3.8 2.3 -3.8
v 0.1 2.3 -3.9
v 0.1 4.8 -3.9
v 3.9 2.3 -3.9
v 3.9 4.8 -3.9
v 0.1 2.3 -0.1
v 0.1 4.8 -0.1
v 3.9 2.3 -0.1
v 3.9 4.8 -0.1
v 0.2 2.1 -0.2
v 0.2 2.3 -0.2
v 3.8 2.1 -0.2
v 3.8 2.3 -0.2
v 1 2.1 -0.4
v 1 2.6 -0.4
v 1.2 2.1 -0.4
v 1.2 2.6 -0.4
v 3.1 2.1 -0.5
v 3.1 2.8 -0.5
v 3.6 2.1 -0.5
v 3.6 2.8 -0.5
v 3.1 2.1 -1
v 3.1 2.3 -1
v 3.4 2.1 -1
v 3.4 2.3 -1
v 0.3 2.1 -1.1
v 0.3 3.7 -1.1
v 0.8 2.1 -1.1
v 0.8 3.7 -1.1
v 0.9 2.1 -1.1
v 0.9 2.5 -1.1
v 1.4 2.1 -1.1
v 1.4 2.5 -1.1
v 1.6 2.1 -1.2
v 1.6 3 -1.2
v 2.1 2.1 -1.2
v 2.1 3 -1.2
v 0.3 2.1 -1.4
v 0.3 2.6 -1.4
v 0.5 2.1 -1.4
v 0.5 2.6 -1.4
v 1.2 2.1 -1.4
v 1.2 2.4 -1.4
v 1.4 2.1 -1.4
v 1.4 2.4 -1.4
v 2.5 2.1 -1.5
v 2.5 2.4 -1.5
v 2.8 2.1 -1.5
v 2.8 2.4 -1.5
v 3.3 2.1 -1.5
v 3.3 2.9 -1.5
v 3.4 2.1 -1.5
v 3.4 2.9 -1.5
v 0.8 2.1 -1.7
v 0.8 2.4 -1.7
v 1.1 2.1 -1.7
v 1.1 2.4 -1.7
v 2.4 2.1 -1.9
v 2.4 2.9 -1.9
v 3.2 2.1 -1.9
v 3.2 2.9 -1.9
v 1.5 2.1 -2
v 1.5 4.2 -2
v 2 2.1 -2
v 2 4.2 -2
v 0.3 2.1 -2.3
v 0.3 2.9 -2.3
v 0.7 2.1 -2.3
v 0.7 2.9 -2.3
v 0.9 2.1 -2.5
v 0.9 3 -2.5
v 1.3 2.1 -2.5
v 1.3 3 -2.5
v 2.1 2.1 -2.6
v 2.1 2.2 -2.6
v 2.3 2.1 -2.6
v 2.3 2.2 -2.6
v 2.5 2.1 -2.6
v 2.5 2.9 -2.6
v 3 2.1 -2.6
v 3 2.9 -2.6
v 3.2 2.1 -2.7
v 3.2 3 -2.7
v 3.5 2.1 -2.7
v 3.5 3 -2.7
v 0.3 2.1 -2.8
v 0.3 2.5 -2.8
v 1.3 2.1 -2.8
v 1.3 2.5 -2.8
v 1.6 2.1 -2.8
v 1.6 2.5 -2.8
v 1.9 2.1 -2.8
v 1.9 2.5 -2.8
v 1.9 2.1 -3.2
v 1.9 2.6 -3.2
v 3 2.1 -3.2
v 3 2.6 -3.2
v 3.5 2.1 -3.3
v 3.5 2.7 -3.3
v 3.7 2.1 -3.3
v 3.7 2.7 -3.3
v 0.4 2.1 -3.5
v 0.4 2.9 -3.5
v 0.9 2.1 -3.5
v 0.9 2.9 -3.5
v 1.3 2.1 -3.5
v 1.3 2.7 -3.5
v 1.6 2.1 -3.5
v 1.6 2.7 -3.5
v 3 2.1 -3.6
v 3 2.4 -3.6
v 3.4 2.1 -3.6
v 3.4 2.4 -3.6
v 0 2 -4
v 0 4.8 -4
v 4 2 -4
v 4 4.8 -4
v 0 2 0
v 4 2 0
v 0.2 2 -0.2
v 3.8 2 -0.2
v 0.2 2 -3.8
v 3.8 2 -3.8
v 0 2 -4
v 4 2 -4
v 0.2 2.1 -0.2
v 3.8 2.1 -0.2
v 0.3 2.1 -0.3
v 0.8 2.1 -0.3
v 1 2.1 -0.3
v 1.2 2.1 -0.3
v 1.6 2.1 -0.3
v 2.1 2.1 -0.3
v 3.1 2.1 -0.3
v 3.6 2.1 -0.3
v 1 2.1 -0.4
v 1.2 2.1 -0.4
v 0.9 2.1 -0.5
v 1.4 2.1 -0.5
v 2.5 2.1 -0.5
v 2.8 2.1 -0.5
v 3.1 2.1 -0.5
v 3.6 2.1 -0.5
v 3.1 2.1 -0.8
v 3.4 2.1 -0.8
v 3.1 2.1 -1
v 3.4 2.1 -1
v 0.3 2.1 -1.1
v 0.8 2.1 -1.1
v 0.9 2.1 -1.1
v 1.4 2.1 -1.1
v 0.3 2.1 -1.2
v 0.5 2.1 -1.2
v 1.2 2.1 -1.2
v 1.4 2.1 -1.2
v 1.6 2.1 -1.2
v 2.1 2.1 -1.2
v 3.3 2.1 -1.2
v 3.4 2.1 -1.2
v 0.3 2.1 -1.4
v 0.5 2.1 -1.4
v 0.8 2.1 -1.4
v 1.1 2.1 -1.4
v 1.2 2.1 -1.4
v 1.4 2.1 -1.4
v 1.5 2.1 -1.4
v 2 2.1 -1.4
v 0.3 2.1 -1.5
v 0.7 2.1 -1.5
v 2.5 2.1 -1.5
v 2.8 2.1 -1.5
v 3.3 2.1 -1.5
v 3.4 2.1 -1.5
v 0.8 2.1 -1.7
v 1.1 2.1 -1.7
v 2.4 2.1 -1.7
v 3.2 2.1 -1.7
v 2.4 2.1 -1.9
v 3.2 2.1 -1.9
v 0.9 2.1 -2
v 1.3 2.1 -2
v 1.5 2.1 -2
v 2 2.1 -2
v 2.5 2.1 -2.1
v 3 2.1 -2.1
v 2.1 2.1 -2.2
v 2.3 2.1 -2.2
v 3.2 2.1 -2.2
v 3.5 2.1 -2.2
v 0.3 2.1 -2.3
v 0.7 2.1 -2.3
v 0.9 2.1 -2.5
v 1.3 2.1 -2.5
v 1.6 2.1 -2.5
v 1.9 2.1 -2.5
v 0.3 2.1 -2.6
v 1.3 2.1 -2.6
v 2.1 2.1 -2.6
v 2.3 2.1 -2.6
v 2.5 2.1 -2.6
v 3 2.1 -2.6
v 3.2 2.1 -2.7
v 3.5 2.1 -2.7
v 0.3 2.1 -2.8
v 1.3 2.1 -2.8
v 1.6 2.1 -2.8
v 1.9 2.1 -2.8
v 3.5 2.1 -2.9
v 3.7 2.1 -2.9
v 0.4 2.1 -3
v 0.9 2.1 -3
v 1.3 2.1 -3
v 1.6 2.1 -3
v 1.9 2.1 -3
v 3 2.1 -3
v 1.9 2.1 -3.2
v 3 2.1 -3.2
v 3.5 2.1 -3.3
v 3.7 2.1 -3.3
v 3 2.1 -3.4
v 3.4 2.1 -3.4
v 0.4 2.1 -3.5
v 0.9 2.1 -3.5
v 1.3 2.1 -3.5
v 1.6 2.1 -3.5
v 3 2.1 -3.6
v 3.4 2.1 -3.6
v 0.2 2.1 -3.8
v 3.8 2.1 -3.8
v 2.1 2.2 -2.2
v 2.3 2.2 -2.2
v 2.1 2.2 -2.6
v 2.3 2.2 -2.6
v 0.1 2.3 -0.1
v 3.9 2.3 -0.1
v 0.2 2.3 -0.2
v 3.8 2.3 -0.2
v 3.1 2.3 -0.8
v 3.4 2.3 -0.8
v 3.1 2.3 -1
v 3.4 2.3 -1
v 0.2 2.3 -3.8
v 3.8 2.3 -3.8
v 0.1 2.3 -3.9
v 3.9 2.3 -3.9
v 2.5 2.4 -0.5
v 2.8 2.4 -0.5
v 1.2 2.4 -1.2
v 1.4 2.4 -1.2
v 0.8 2.4 -1.4
v 1.1 2.4 -1.4
v 1.2 2.4 -1.4
v 1.4 2.4 -1.4
v 2.5 2.4 -1.5
v 2.8 2.4 -1.5
v 0.8 2.4 -1.7
v 1.1 2.4 -1.7
v 3 2.4 -3.4
v 3.4 2.4 -3.4
v 3 2.4 -3.6
v 3.4 2.4 -3.6
v 0.9 2.5 -0.5
v 1.4 2.5 -0.5
v 0.9 2.5 -1.1
v 1.4 2.5 -1.1
v 1.6 2.5 -2.5
v 1.9 2.5 -2.5
v 0.3 2.5 -2.6
v 1.3 2.5 -2.6
v 0.3 2.5 -2.8
v 1.3 2.5 -2.8
v 1.6 2.5 -2.8
v 1.9 2.5 -2.8
v 1 2.6 -0.3
v 1.2 2.6 -0.3
v 1 2.6 -0.4
v 1.2 2.6 -0.4
v 0.3 2.6 -1.2
v 0.5 2.6 -1.2
v 0.3 2.6 -1.4
v 0.5 2.6 -1.4
v 1.9 2.6 -3
v 3 2.6 -3
v 1.9 2.6 -3.2
v 3 2.6 -3.2
v 3.5 2.7 -2.9
v 3.7 2.7 -2.9
v 1.3 2.7 -3
v 1.6 2.7 -3
v 3.5 2.7 -3.3
v 3.7 2.7 -3.3
v 1.3 2.7 -3.5
v 1.6 2.7 -3.5
v 3.1 2.8 -0.3
v 3.6 2.8 -0.3
v 3.1 2.8 -0.5
v 3.6 2.8 -0.5
v 3.3 2.9 -1.2
v 3.4 2.9 -1.2
v 0.3 2.9 -1.5
v 0.7 2.9 -1.5
v 3.3 2.9 -1.5
v 3.4 2.9 -1.5
v 2.4 2.9 -1.7
v 3.2 2.9 -1.7
v 2.4 2.9 -1.9
v 3.2 2.9 -1.9
v 2.5 2.9 -2.1
v 3 2.9 -2.1
v 0.3 2.9 -2.3
v 0.7 2.9 -2.3
v 2.5 2.9 -2.6
v 3 2.9 -2.6
v 0.4 2.9 -3
v 0.9 2.9 -3
v 0.4 2.9 -3.5
v 0.9 2.9 -3.5
v 1.6 3 -0.3
v 2.1 3 -0.3
v 1.6 3 -1.2
v 2.1 3 -1.2
v 0.9 3 -2
v 1.3 3 -2
v 3.2 3 -2.2
v 3.5 3 -2.2
v 0.9 3 -2.5
v 1.3 3 -2.5
v 3.2 3 -2.7
v 3.5 3 -2.7
v 0.3 3.7 -0.3
v 0.8 3.7 -0.3
v 0.3 3.7 -1.1
v 0.8 3.7 -1.1
v 1.5 4.2 -1.4
v 2 4.2 -1.4
v 1.5 4.2 -2
v 2 4.2 -2
v 0 4.8 0
v 4 4.8 0
v 0.1 4.8 -0.1
v 3.9 4.8 -0.1
v 0.1 4.8 -3.9
v 3.9 4.8 -3.9
v 0 4.8 -4
v 4 4.8 -4

# faces
f 3/2/1 2/2/1 1/2/1
f 4/2/1 2/2/1 3/2/1
f 13/2/1 12/2/1 11/2/1
f 14/2/1 12/2/1 13/2/1
f 15/2/1 8/2/1 7/2/1
f 16/2/1 8/2/1 15/2/1
f 17/2/1 10/2/1 9/2/1
f 18/2/1 10/2/1 17/2/1
f 19/2/1 6/2/1 5/2/1
f 20/2/1 6/2/1 19/2/1
f 23/2/1 22/2/1 21/2/1
f 24/2/1 22/2/1 23/2/1
f 27/2/1 26/2/1 25/2/1
f 28/2/1 26/2/1 27/2/1
f 33/2/1 30/2/1 29/2/1
f 34/2/1 30/2/1 33/2/1
f 35/2/1 32/2/1 31/2/1
f 36/2/1 32/2/1 35/2/1
f 39/2/1 38/2/1 37/2/1
f 40/2/1 38/2/1 39/2/1
f 43/2/1 42/2/1 41/2/1
f 44/2/1 42/2/1 43/2/1
f 47/2/1 46/2/1 45/2/1
f 48/2/1 46/2/1 47/2/1
f 51/2/1 50/2/1 49/2/1
f 52/2/1 50/2/1 51/2/1
f 57/2/1 56/2/1 55/2/1
f 58/2/1 56/2/1 57/2/1
f 59/2/1 54/2/1 53/2/1
f 60/2/1 54/2/1 59/2/1
f 63/2/1 62/2/1 61/2/1
f 64/2/1 62/2/1 63/2/1
f 67/2/1 66/2/1 65/2/1
f 68/2/1 66/2/1 67/2/1
f 71/2/1 70/2/1 69/2/1
f 72/2/1 70/2/1 71/2/1
f 77/2/1 74/2/1 73/2/1
f 78/2/1 74/2/1 77/2/1
f 79/2/1 76/2/1 75/2/1
f 80/2/1 76/2/1 79/2/1
f 83/2/1 82/2/1 81/2/1
f 84/2/1 82/2/1 83/2/1
f 89/2/1 88/2/1 87/2/1
f 90/2/1 88/2/1 89/2/1
f 91/2/1 86/2/1 85/2/1
f 92/2/1 86/2/1 91/2/1
f 95/2/1 94/2/1 93/2/1
f 96/2/1 94/2/1 95/2/1
f 99/2/1 98/2/1 97/2/1
f 100/2/1 98/2/1 99/2/1
f 103/2/1 102/2/1 101/2/1
f 104/2/1 102/2/1 103/2/1
f 107/3/1 106/3/1 105/3/1
f 108/3/1 106/3/1 107/3/1
f 111/2/1 110/2/1 109/2/1
f 112/2/1 110/2/1 111/2/1
f 113/2/2 114/2/2 115/2/2
f 115/2/2 114/2/2 116/2/2
f 117/3/2 118/3/2 119/3/2
f 119/3/2 118/3/2 120/3/2
f 121/2/2 122/2/2 123/2/2
f 123/2/2 122/2/2 124/2/2
f 125/2/2 126/2/2 127/2/2
f 127/2/2 126/2/2 128/2/2
f 129/2/2 130/2/2 131/2/2
f 131/2/2 130/2/2 132/2/2
f 133/2/2 134/2/2 135/2/2
f 135/2/2 134/2/2 136/2/2
f 137/2/2 138/2/2 139/2/2
f 139/2/2 138/2/2 140/2/2
f 141/2/2 142/2/2 143/2/2
f 143/2/2 142/2/2 144/2/2
f 147/2/2 148/2/2 149/2/2
f 149/2/2 148/2/2 150/2/2
f 145/2/2 146/2/2 151/2/2
f 151/2/2 146/2/2 152/2/2
f 155/2/2 156/2/2 157/2/2
f 157/2/2 156/2/2 158/2/2
f 153/2/2 154/2/2 159/2/2
f 159/2/2 154/2/2 160/2/2
f 161/2/2 162/2/2 163/2/2
f 163/2/2 162/2/2 164/2/2
f 165/2/2 166/2/2 167/2/2
f 167/2/2 166/2/2 168/2/2
f 169/2/2 170/2/2 171/2/2
f 171/2/2 170/2/2 172/2/2
f 173/2/2 174/2/2 175/2/2
f 175/2/2 174/2/2 176/2/2
f 177/2/2 178/2/2 179/2/2
f 179/2/2 178/2/2 180/2/2
f 181/2/2 182/2/2 183/2/2
f 183/2/2 182/2/2 184/2/2
f 187/2/2 188/2/2 189/2/2
f 189/2/2 188/2/2 190/2/2
f 185/2/2 186/2/2 191/2/2
f 191/2/2 186/2/2 192/2/2
f 193/2/2 194/2/2 195/2/2
f 195/2/2 194/2/2 196/2/2
f 197/2/2 198/2/2 203/2/2
f 203/2/2 198/2/2 204/2/2
f 201/2/2 202/2/2 205/2/2
f 205/2/2 202/2/2 206/2/2
f 199/2/2 200/2/2 207/2/2
f 207/2/2 200/2/2 208/2/2
f 209/2/2 210/2/2 211/2/2
f 211/2/2 210/2/2 212/2/2
f 213/2/2 214/2/2 215/2/2
f 215/2/2 214/2/2 216/2/2
f 217/2/2 218/2/2 219/2/2
f 219/2/2 218/2/2 220/2/2
f 221/2/2 222/2/2 223/2/2
f 223/2/2 222/2/2 224/2/2
f 227/2/3 226/2/3 225/2/3
f 228/2/3 226/2/3 227/2/3
f 231/2/3 230/2/3 229/2/3
f 232/2/3 230/2/3 231/2/3
f 235/2/3 234/2/3 233/2/3
f 236/2/3 234/2/3 235/2/3
f 239/2/3 238/2/3 237/2/3
f 240/2/3 238/2/3 239/2/3
f 243/2/3 242/2/3 241/2/3
f 244/2/3 242/2/3 243/2/3
f 247/2/3 246/2/3 245/2/3
f 248/2/3 246/2/3 247/2/3
f 251/2/3 250/2/3 249/2/3
f 252/2/3 250/2/3 251/2/3
f 255/2/3 254/2/3 253/2/3
f 256/2/3 254/2/3 255/2/3
f 259/2/3 258/2/3 257/2/3
f 260/2/3 258/2/3 259/2/3
f 263/2/3 262/2/3 261/2/3
f 264/2/3 262/2/3 263/2/3
f 267/2/3 266/2/3 265/2/3
f 268/2/3 266/2/3 267/2/3
f 271/2/3 270/2/3 269/2/3
f 272/2/3 270/2/3 271/2/3
f 275/2/3 274/2/3 273/2/3
f 276/2/3 274/2/3 275/2/3
f 279/2/3 278/2/3 277/2/3
f 280/2/3 278/2/3 279/2/3
f 283/2/3 282/2/3 281/2/3
f 284/2/3 282/2/3 283/2/3
f 287/2/3 286/2/3 285/2/3
f 288/2/3 286/2/3 287/2/3
f 291/2/3 290/2/3 289/2/3
f 292/2/3 290/2/3 291/2/3
f 295/2/3 294/2/3 293/2/3
f 296/2/3 294/2/3 295/2/3
f 299/2/3 298/2/3 297/2/3
f 300/2/3 298/2/3 299/2/3
f 303/2/3 302/2/3 301/2/3
f 304/2/3 302/2/3 303/2/3
f 307/2/3 306/2/3 305/2/3
f 308/2/3 306/2/3 307/2/3
f 311/2/3 310/2/3 309/2/3
f 312/2/3 310/2/3 311/2/3
f 315/2/3 314/2/3 313/2/3
f 316/2/3 314/2/3 315/2/3
f 319/2/3 318/2/3 317/2/3
f 320/2/3 318/2/3 319/2/3
f 323/2/3 322/2/3 321/2/3
f 324/2/3 322/2/3 323/2/3
f 327/2/3 326/2/3 325/2/3
f 328/2/3 326/2/3 327/2/3
f 331/3/3 330/3/3 329/3/3
f 332/3/3 330/3/3 331/3/3
f 335/2/3 334/2/3 333/2/3
f 336/2/3 334/2/3 335/2/3
f 337/2/4 338/2/4 339/2/4
f 339/2/4 338/2/4 340/2/4
f 341/3/4 342/3/4 343/3/4
f 343/3/4 342/3/4 344/3/4
f 345/2/4 346/2/4 347/2/4
f 347/2/4 346/2/4 348/2/4
f 349/2/4 350/2/4 351/2/4
f 351/2/4 350/2/4 352/2/4
f 353/2/4 354/2/4 355/2/4
f 355/2/4 354/2/4 356/2/4
f 357/2/4 358/2/4 359/2/4
f 359/2/4 358/2/4 360/2/4
f 361/2/4 362/2/4 363/2/4
f 363/2/4 362/2/4 364/2/4
f 365/2/4 366/2/4 367/2/4
f 367/2/4 366/2/4 368/2/4
f 369/2/4 370/2/4 371/2/4
f 371/2/4 370/2/4 372/2/4
f 373/2/4 374/2/4 375/2/4
f 375/2/4 374/2/4 376/2/4
f 377/2/4 378/2/4 379/2/4
f 379/2/4 378/2/4 380/2/4
f 381/2/4 382/2/4 383/2/4
f 383/2/4 382/2/4 384/2/4
f 385/2/4 386/2/4 387/2/4
f 387/2/4 386/2/4 388/2/4
f 389/2/4 390/2/4 391/2/4
f 391/2/4 390/2/4 392/2/4
f 393/2/4 394/2/4 395/2/4
f 395/2/4 394/2/4 396/2/4
f 397/2/4 398/2/4 399/2/4
f 399/2/4 398/2/4 400/2/4
f 401/2/4 402/2/4 403/2/4
f 403/2/4 402/2/4 404/2/4
f 405/2/4 406/2/4 407/2/4
f 407/2/4 406/2/4 408/2/4
f 409/2/4 410/2/4 411/2/4
f 411/2/4 410/2/4 412/2/4
f 413/2/4 414/2/4 415/2/4
f 415/2/4 414/2/4 416/2/4
f 417/2/4 418/2/4 419/2/4
f 419/2/4 418/2/4 420/2/4
f 421/2/4 422/2/4 423/2/4
f 423/2/4 422/2/4 424/2/4
f 425/2/4 426/2/4 427/2/4
f 427/2/4 426/2/4 428/2/4
f 429/2/4 430/2/4 431/2/4
f 431/2/4 430/2/4 432/2/4
f 433/2/4 434/2/4 435/2/4
f 435/2/4 434/2/4 436/2/4
f 437/2/4 438/2/4 439/2/4
f 439/2/4 438/2/4 440/2/4
f 441/2/4 442/2/4 443/2/4
f 443/2/4 442/2/4 444/2/4
f 445/2/4 446/2/4 447/2/4
f 447/2/4 446/2/4 448/2/4
f 451/2/5 450/2/5 449/2/5
f 452/2/5 450/2/5 451/2/5
f 453/2/5 451/2/5 449/2/5
f 453/1/5 452/1/5 451/1/5
f 454/2/5 450/2/5 452/2/5
f 454/1/5 452/1/5 453/1/5
f 455/2/5 453/2/5 449/2/5
f 455/2/5 454/2/5 453/2/5
f 456/2/5 450/2/5 454/2/5
f 456/2/5 454/2/5 455/2/5
f 457/1/6 458/1/6 459/1/6
f 459/1/6 458/1/6 460/1/6
f 460/1/6 458/1/6 461/1/6
f 461/1/6 458/1/6 462/1/6
f 462/1/6 458/1/6 463/1/6
f 463/1/6 458/1/6 464/1/6
f 464/1/6 458/1/6 465/1/6
f 465/1/6 458/1/6 466/1/6
f 460/1/6 461/1/6 467/1/6
f 462/1/6 463/1/6 468/1/6
f 460/1/6 467/1/6 469/1/6
f 467/1/6 468/1/6 469/1/6
f 468/1/6 463/1/6 470/1/6
f 469/1/6 468/1/6 470/1/6
f 464/1/6 465/1/6 471/1/6
f 471/1/6 465/1/6 472/1/6
f 472/1/6 465/1/6 473/1/6
f 466/1/6 458/1/6 474/1/6
f 472/1/6 473/1/6 475/1/6
f 473/1/6 474/1/6 475/1/6
f 475/1/6 474/1/6 476/1/6
f 472/1/6 475/1/6 477/1/6
f 476/1/6 474/1/6 478/1/6
f 457/1/6 459/1/6 479/1/6
f 460/1/6 469/1/6 480/1/6
f 480/1/6 469/1/6 481/1/6
f 470/1/6 463/1/6 482/1/6
f 480/1/6 481/1/6 483/1/6
f 481/1/6 482/1/6 483/1/6
f 457/1/6 479/1/6 483/1/6
f 479/1/6 480/1/6 483/1/6
f 483/1/6 482/1/6 484/1/6
f 484/1/6 482/1/6 485/1/6
f 482/1/6 463/1/6 486/1/6
f 485/1/6 482/1/6 486/1/6
f 486/1/6 463/1/6 487/1/6
f 464/1/6 471/1/6 488/1/6
f 477/1/6 478/1/6 489/1/6
f 478/1/6 474/1/6 490/1/6
f 489/1/6 478/1/6 490/1/6
f 457/1/6 483/1/6 491/1/6
f 484/1/6 485/1/6 492/1/6
f 492/1/6 485/1/6 493/1/6
f 493/1/6 485/1/6 494/1/6
f 494/1/6 485/1/6 495/1/6
f 487/1/6 488/1/6 496/1/6
f 486/1/6 487/1/6 496/1/6
f 496/1/6 488/1/6 497/1/6
f 497/1/6 488/1/6 498/1/6
f 457/1/6 491/1/6 499/1/6
f 491/1/6 492/1/6 499/1/6
f 492/1/6 493/1/6 499/1/6
f 499/1/6 493/1/6 500/1/6
f 498/1/6 488/1/6 501/1/6
f 488/1/6 471/1/6 501/1/6
f 472/1/6 477/1/6 502/1/6
f 477/1/6 489/1/6 502/1/6
f 502/1/6 489/1/6 503/1/6
f 490/1/6 474/1/6 504/1/6
f 500/1/6 493/1/6 505/1/6
f 494/1/6 495/1/6 506/1/6
f 496/1/6 497/1/6 506/1/6
f 495/1/6 496/1/6 506/1/6
f 503/1/6 504/1/6 507/1/6
f 498/1/6 501/1/6 507/1/6
f 502/1/6 503/1/6 507/1/6
f 501/1/6 502/1/6 507/1/6
f 507/1/6 504/1/6 508/1/6
f 498/1/6 507/1/6 509/1/6
f 508/1/6 504/1/6 510/1/6
f 505/1/6 506/1/6 511/1/6
f 506/1/6 497/1/6 512/1/6
f 511/1/6 506/1/6 512/1/6
f 512/1/6 497/1/6 513/1/6
f 509/1/6 510/1/6 514/1/6
f 498/1/6 509/1/6 514/1/6
f 512/1/6 513/1/6 515/1/6
f 513/1/6 514/1/6 515/1/6
f 514/1/6 510/1/6 515/1/6
f 515/1/6 510/1/6 516/1/6
f 512/1/6 515/1/6 517/1/6
f 517/1/6 515/1/6 518/1/6
f 510/1/6 504/1/6 519/1/6
f 516/1/6 510/1/6 519/1/6
f 504/1/6 474/1/6 520/1/6
f 519/1/6 504/1/6 520/1/6
f 457/1/6 499/1/6 521/1/6
f 500/1/6 505/1/6 522/1/6
f 505/1/6 511/1/6 522/1/6
f 522/1/6 511/1/6 523/1/6
f 521/1/6 522/1/6 523/1/6
f 512/1/6 517/1/6 524/1/6
f 524/1/6 517/1/6 525/1/6
f 525/1/6 517/1/6 526/1/6
f 457/1/6 521/1/6 527/1/6
f 521/1/6 523/1/6 527/1/6
f 524/1/6 525/1/6 527/1/6
f 523/1/6 524/1/6 527/1/6
f 527/1/6 525/1/6 528/1/6
f 526/1/6 517/1/6 529/1/6
f 518/1/6 515/1/6 530/1/6
f 530/1/6 515/1/6 531/1/6
f 516/1/6 519/1/6 532/1/6
f 530/1/6 531/1/6 533/1/6
f 531/1/6 532/1/6 533/1/6
f 532/1/6 519/1/6 533/1/6
f 529/1/6 530/1/6 533/1/6
f 520/1/6 474/1/6 534/1/6
f 457/1/6 527/1/6 535/1/6
f 528/1/6 525/1/6 536/1/6
f 536/1/6 525/1/6 537/1/6
f 529/1/6 533/1/6 538/1/6
f 526/1/6 529/1/6 538/1/6
f 533/1/6 534/1/6 538/1/6
f 536/1/6 537/1/6 539/1/6
f 537/1/6 538/1/6 539/1/6
f 538/1/6 534/1/6 539/1/6
f 535/1/6 536/1/6 539/1/6
f 534/1/6 474/1/6 539/1/6
f 474/1/6 458/1/6 540/1/6
f 539/1/6 474/1/6 540/1/6
f 535/1/6 539/1/6 541/1/6
f 541/1/6 539/1/6 542/1/6
f 542/1/6 539/1/6 543/1/6
f 543/1/6 539/1/6 544/1/6
f 544/1/6 539/1/6 545/1/6
f 545/1/6 539/1/6 546/1/6
f 544/1/6 545/1/6 547/1/6
f 546/1/6 539/1/6 548/1/6
f 548/1/6 539/1/6 549/1/6
f 547/1/6 548/1/6 549/1/6
f 540/1/6 458/1/6 550/1/6
f 547/1/6 549/1/6 551/1/6
f 549/1/6 550/1/6 551/1/6
f 551/1/6 550/1/6 552/1/6
f 535/1/6 541/1/6 553/1/6
f 542/1/6 543/1/6 554/1/6
f 554/1/6 543/1/6 555/1/6
f 544/1/6 547/1/6 556/1/6
f 547/1/6 551/1/6 556/1/6
f 554/1/6 555/1/6 557/1/6
f 555/1/6 556/1/6 557/1/6
f 556/1/6 551/1/6 557/1/6
f 553/1/6 554/1/6 557/1/6
f 552/1/6 550/1/6 558/1/6
f 457/1/6 535/1/6 559/1/6
f 557/1/6 558/1/6 559/1/6
f 553/1/6 557/1/6 559/1/6
f 535/1/6 553/1/6 559/1/6
f 558/1/6 550/1/6 560/1/6
f 559/1/6 558/1/6 560/1/6
f 550/1/6 458/1/6 560/1/6
f 561/2/6 562/2/6 563/2/6
f 563/2/6 562/2/6 564/2/6
f 565/3/6 566/3/6 567/3/6
f 567/3/6 566/3/6 568/3/6
f 569/2/6 570/2/6 571/2/6
f 571/2/6 570/2/6 572/2/6
f 565/3/6 567/3/6 573/3/6
f 568/3/6 566/3/6 574/3/6
f 565/3/6 573/3/6 575/3/6
f 573/3/6 574/3/6 575/3/6
f 574/3/6 566/3/6 576/3/6
f 575/3/6 574/3/6 576/3/6
f 579/2/6 580/2/6 583/2/6
f 583/2/6 580/2/6 584/2/6
f 577/2/6 578/2/6 585/2/6
f 585/2/6 578/2/6 586/2/6
f 581/2/6 582/2/6 587/2/6
f 587/2/6 582/2/6 588/2/6
f 589/2/6 590/2/6 591/2/6
f 591/2/6 590/2/6 592/2/6
f 593/2/6 594/2/6 595/2/6
f 595/2/6 594/2/6 596/2/6
f 599/2/6 600/2/6 601/2/6
f 601/2/6 600/2/6 602/2/6
f 597/2/6 598/2/6 603/2/6
f 603/2/6 598/2/6 604/2/6
f 605/2/6 606/2/6 607/2/6
f 607/2/6 606/2/6 608/2/6
f 609/2/6 610/2/6 611/2/6
f 611/2/6 610/2/6 612/2/6
f 613/2/6 614/2/6 615/2/6
f 615/2/6 614/2/6 616/2/6
f 617/2/6 618/2/6 621/2/6
f 621/2/6 618/2/6 622/2/6
f 619/2/6 620/2/6 623/2/6
f 623/2/6 620/2/6 624/2/6
f 625/2/6 626/2/6 627/2/6
f 627/2/6 626/2/6 628/2/6
f 629/2/6 630/2/6 633/2/6
f 633/2/6 630/2/6 634/2/6
f 635/2/6 636/2/6 637/2/6
f 637/2/6 636/2/6 638/2/6
f 631/2/6 632/2/6 641/2/6
f 641/2/6 632/2/6 642/2/6
f 639/2/6 640/2/6 643/2/6
f 643/2/6 640/2/6 644/2/6
f 645/2/6 646/2/6 647/2/6
f 647/2/6 646/2/6 648/2/6
f 649/2/6 650/2/6 651/2/6
f 651/2/6 650/2/6 652/2/6
f 653/2/6 654/2/6 657/2/6
f 657/2/6 654/2/6 658/2/6
f 655/2/6 656/2/6 659/2/6
f 659/2/6 656/2/6 660/2/6
f 661/2/6 662/2/6 663/2/6
f 663/2/6 662/2/6 664/2/6
f 665/2/6 666/2/6 667/2/6
f 667/2/6 666/2/6 668/2/6
f 669/2/6 670/2/6 671/2/6
f 671/2/6 670/2/6 672/2/6
f 669/2/6 671/2/6 673/2/6
f 672/2/6 670/2/6 674/2/6
f 669/2/6 673/2/6 675/2/6
f 673/2/6 674/2/6 675/2/6
f 674/2/6 670/2/6 676/2/6
f 675/2/6 674/2/6 676/2/6
